<svg xmlns="http://www.w3.org/2000/svg" viewBox="0 0 512 512">
  <defs>
    <linearGradient id="bg" x1="0%" y1="0%" x2="100%" y2="100%">
      <stop offset="0%" style="stop-color:#7F77DD"/>
      <stop offset="100%" style="stop-color:#3C3489"/>
    </linearGradient>
  </defs>
  <rect width="512" height="512" rx="100" fill="url(#bg)"/>
  <!-- Livres empilés -->
  <rect x="110" y="310" width="292" height="32" rx="6" fill="#AFA9EC" opacity="0.6"/>
  <rect x="125" y="274" width="240" height="32" rx="6" fill="#AFA9EC" opacity="0.5"/>
  <!-- Livre principal ouvert -->
  <path d="M256 150 C215 162 168 167 140 162 L140 295 C168 300 215 295 256 283 C297 295 344 300 372 295 L372 162 C344 167 297 162 256 150Z" fill="#fff" opacity="0.95"/>
  <line x1="256" y1="150" x2="256" y2="283" stroke="#7F77DD" stroke-width="3" opacity="0.4"/>
  <!-- Lignes de texte simulées -->
  <rect x="165" y="190" width="75" height="4" rx="2" fill="#7F77DD" opacity="0.3"/>
  <rect x="165" y="202" width="60" height="4" rx="2" fill="#7F77DD" opacity="0.2"/>
  <rect x="165" y="214" width="70" height="4" rx="2" fill="#7F77DD" opacity="0.2"/>
  <rect x="272" y="190" width="75" height="4" rx="2" fill="#7F77DD" opacity="0.3"/>
  <rect x="272" y="202" width="55" height="4" rx="2" fill="#7F77DD" opacity="0.2"/>
  <rect x="272" y="214" width="68" height="4" rx="2" fill="#7F77DD" opacity="0.2"/>
  <!-- BM -->
  <text x="256" y="390" font-family="Georgia,serif" font-size="56" font-weight="900" text-anchor="middle" fill="#fff" opacity="0.95">BM</text>
</svg>